<?xml version="1.0" encoding="UTF-8"?>
<svg id="Layer_1" data-name="Layer 1" xmlns="http://www.w3.org/2000/svg" viewBox="0 0 93.39 86.32">
  <defs>
    <style>
      .cls-1 {
        fill: #1A7FB5;
        stroke-width: 0px;
      }
    </style>
  </defs>
  <path class="cls-1" d="M93.37,32.31c-.02-6.08.02-12.17-.3-18.24-.23-4.25-2.12-7.88-5.58-10.55C84.12.91,80.17.08,76.05.04c-9.78-.08-19.57-.03-29.35-.03h0c-9.57,0-19.15-.03-28.72.02-1.75,0-3.51.19-5.23.51-4.2.79-7.68,2.77-10.02,6.48C.93,9.9.07,13.08.05,16.43-.01,30.16-.01,43.89.02,57.61c.01,4.82-.14,9.67.34,14.45.58,5.84,3.52,10.44,9.22,12.55,2.58.96,5.44,1.55,8.18,1.58,16.46.15,32.92.13,49.38.08,4.48-.01,8.99-.02,13.42-.59,5.11-.65,9.02-3.45,11.19-8.29,1.2-2.67,1.63-5.52,1.63-8.44,0-12.22.03-24.43,0-36.65ZM76.32,17.71c-1.42,7.8-2.86,15.59-4.23,23.4-.98,5.59-1.86,11.2-2.74,16.81-.48,3.05-.87,6.12-1.3,9.18-.28,1.96-.51,2.25-2.54,2.32-2.31.08-4.62.04-6.93.05-.8,0-1.6-.04-2.39,0-1.44.08-2.42-.47-3.18-1.75-3.9-6.59-7.88-13.14-11.82-19.7-1.7-2.83-3.39-5.68-5.09-8.52-.1-.16-.23-.3-.45-.58-1.13,7.34-2.27,14.5-3.33,21.67-.36,2.4-.56,4.82-.8,7.23-.1.99-.55,1.58-1.57,1.59-4.53.02-9.07.03-13.6.03-1.06,0-1.2-.62-1.03-1.53,1.74-9.4,3.47-18.8,5.2-28.19,1.35-7.34,2.72-14.69,4.04-22.04.19-1.05.7-1.41,1.69-1.41,4.28.01,8.57.01,12.85,0,1.02,0,1.58.52,2.04,1.37,3.08,5.75,6.13,11.52,9.29,17.22,5.06,9.1,10.2,18.16,15.31,27.23.08.14.18.28.27.42.09-.03.17-.07.26-.1-2.33-4.9-4.63-9.81-7.06-14.65-2.81-5.61-2.4-3.98-1.35-10.48.85-5.23,1.67-10.47,2.5-15.71.22-1.36.52-2.71.71-4.07.12-.89.62-1.23,1.44-1.23,4.24,0,8.48,0,12.72-.02,1.11,0,1.24.56,1.07,1.46Z"/>
</svg>